<svg width="926" height="208" viewBox="0 0 926 208" fill="none" xmlns="http://www.w3.org/2000/svg" xmlns:xlink="http://www.w3.org/1999/xlink">
<path d="M832.838,4L834.818,1.747L833.968,1L832.838,1L832.838,4ZM922,82.387L925,82.387L925,81.03L923.98,80.134L922,82.387ZM922,203.887L922,206.888L925,206.888L925,203.887L922,203.887ZM4,203.887L1,203.887L1,206.888L4,206.888L4,203.887ZM4,4L4,1L1,1L1,4L4,4ZM226.28,7L832.838,7L832.838,1L226.28,1L226.28,7ZM830.856,6.253L920.02,84.64L923.98,80.134L834.818,1.747L830.856,6.253ZM919,82.387L919,203.887L925,203.887L925,82.387L919,82.387ZM922,200.887L4,200.887L4,206.888L922,206.888L922,200.887ZM7,203.887L7,4L1,4L1,203.887L7,203.887ZM4,7L226.28,7L226.28,1L4,1L4,7Z" fill="#F5F5F5"/>
</svg>
