<svg width="64" height="64" viewBox="0 0 64 64" fill="none" xmlns="http://www.w3.org/2000/svg">
  <!-- Gradient background -->
  <circle cx="32" cy="32" r="32" fill="url(#paint0_radial)"/>
  
  <!-- Rocket -->
  <g filter="url(#shadow)">
    <!-- Rocket body -->
    <path d="M32 10L25 32H39L32 10Z" fill="#f5f5f5"/>
    <path d="M25 32V46H39V32H25Z" fill="#f5f5f5"/>
    
    <!-- Rocket fins -->
    <path d="M25 42L18 52L25 46V42Z" fill="#ff6b6b"/>
    <path d="M39 42L46 52L39 46V42Z" fill="#ff6b6b"/>
    
    <!-- Engine base -->
    <path d="M28 46H36V49H28V46Z" fill="#555555"/>
    
    <!-- Rocket details -->
    <path d="M25 32H39" stroke="#d1d1d1" strokeWidth="1"/>
    <path d="M25 38H39" stroke="#ff6b6b" strokeWidth="1"/>
    
    <!-- Flame -->
    <path d="M30 49C30 52 32 56 32 56C32 56 34 52 34 49H30Z" fill="url(#flame_gradient)"/>
  </g>
  
  <!-- Definitions for gradients and filters -->
  <defs>
    <radialGradient id="paint0_radial" cx="0" cy="0" r="1" gradientUnits="userSpaceOnUse" gradientTransform="translate(32 32) rotate(90) scale(32)">
      <stop offset="0" stopColor="#1E3A8A"/>
      <stop offset="1" stopColor="#0F172A"/>
    </radialGradient>
    
    <linearGradient id="flame_gradient" x1="32" y1="49" x2="32" y2="56" gradientUnits="userSpaceOnUse">
      <stop offset="0" stopColor="#F59E0B"/>
      <stop offset="0.5" stopColor="#EF4444"/>
      <stop offset="1" stopColor="#F97316"/>
    </linearGradient>
    
    <filter id="shadow" x="14" y="8" width="36" height="52" filterUnits="userSpaceOnUse" color-interpolation-filters="sRGB">
      <feFlood flood-opacity="0" result="BackgroundImageFix"/>
      <feColorMatrix in="SourceAlpha" type="matrix" values="0 0 0 0 0 0 0 0 0 0 0 0 0 0 0 0 0 0 127 0"/>
      <feOffset dy="2"/>
      <feGaussianBlur stdDeviation="2"/>
      <feColorMatrix type="matrix" values="0 0 0 0 0 0 0 0 0 0 0 0 0 0 0 0 0 0 0.25 0"/>
      <feBlend mode="normal" in2="BackgroundImageFix" result="effect1_dropShadow"/>
      <feBlend mode="normal" in="SourceGraphic" in2="effect1_dropShadow" result="shape"/>
    </filter>
  </defs>
</svg> 