<svg width="392" height="268" viewBox="0 0 392 268" fill="none" xmlns="http://www.w3.org/2000/svg" xmlns:xlink="http://www.w3.org/1999/xlink">
<path d="M8.7,201.178L9.483,200.556L9.483,200.556L8.7,201.178ZM12.069,144.802L11.379,144.078L11.377,144.079L12.069,144.802ZM45.009,134.782L45.002,135.782L45.003,135.782L45.009,134.782ZM190.386,0.465L190.533,1.454L190.533,1.454L190.386,0.465ZM261.302,25.876L261.006,26.832L261.006,26.832L261.302,25.876ZM387.53,50.199L388.444,49.793L388.444,49.792L387.53,50.199ZM242.154,184.516L242.154,183.516L242.154,183.516L242.154,184.516ZM209.214,194.535L208.508,193.827L208.508,193.827L209.214,194.535ZM205.846,250.912L206.652,250.32L206.65,250.32L205.846,250.912ZM31.052,213.672C26.593,212.638 16.684,209.622 9.483,200.556L7.917,201.8C15.537,211.394 25.981,214.55 30.6,215.62L31.052,213.672ZM9.483,200.556C-2.593,185.358 -2.016,159.663 12.76,145.524L11.377,144.079C-4.198,158.982 -4.756,185.852 7.917,201.8L9.483,200.556ZM12.758,145.526C23.731,135.067 39.816,135.745 45.002,135.782L45.016,133.782C39.989,133.747 23.028,132.973 11.379,144.078L12.758,145.526ZM45.003,135.782C62.033,135.875 75.747,127.933 87.679,115.977C99.589,104.042 109.807,88.023 119.85,71.812C129.921,55.558 139.816,39.112 151.132,26.127C162.439,13.151 175.062,3.755 190.533,1.454L190.238,-0.524C174.099,1.876 161.081,11.666 149.624,24.813C138.176,37.95 128.184,54.563 118.15,70.759C108.089,86.998 97.985,102.818 86.263,114.564C74.562,126.289 61.332,133.871 45.014,133.782L45.003,135.782ZM190.533,1.454C195.533,0.708 199.117,0.911 202.49,1.846C205.898,2.791 209.144,4.493 213.492,6.861C222.182,11.595 234.872,18.745 261.006,26.832L261.596,24.921C235.644,16.89 223.086,9.809 214.448,5.105C210.13,2.753 206.69,0.935 203.024,-0.081C199.325,-1.107 195.45,-1.302 190.238,-0.524L190.533,1.454ZM261.006,26.832C301.444,39.339 331.038,40.787 351.522,41.433C361.8,41.757 369.646,41.88 375.462,43.06C381.214,44.227 384.734,46.379 386.618,50.606L388.444,49.792C386.196,44.744 381.95,42.335 375.86,41.1C369.832,39.877 361.754,39.754 351.586,39.434C331.18,38.791 301.79,37.353 261.596,24.921L261.006,26.832ZM386.616,50.605C388.284,54.356 388.434,59.231 387.166,64.993C385.9,70.744 383.242,77.284 379.416,84.285C371.762,98.286 359.51,114.002 344.692,128.737C329.88,143.469 312.538,157.187 294.734,167.211C276.92,177.242 258.714,183.534 242.154,183.516L242.152,185.516C259.188,185.534 277.74,179.075 295.716,168.954C313.702,158.826 331.186,144.991 346.104,130.155C361.018,115.322 373.404,99.455 381.17,85.245C385.054,78.14 387.8,71.418 389.12,65.423C390.436,59.438 390.35,54.083 388.444,49.793L386.616,50.605ZM242.154,183.516C236.444,183.516 219.702,182.666 208.508,193.827L209.92,195.243C220.426,184.769 236.234,185.516 242.154,185.516L242.154,183.516ZM208.508,193.827C202.024,200.296 197.992,210.398 197.145,220.984C196.297,231.578 198.627,242.794 205.04,251.506L206.65,250.32C200.582,242.078 198.32,231.368 199.139,221.142C199.958,210.908 203.852,201.298 209.92,195.243L208.508,193.827ZM205.04,251.504C209.342,257.366 214.588,260.794 218.282,262.758L219.222,260.992C215.682,259.11 210.716,255.856 206.652,250.32L205.04,251.504Z" fill="#FFFFFF"/>
<path d="M235.984,183.935L235.734,184.903L235.76,184.91L235.786,184.915L235.984,183.935ZM251.728,187.13L252.118,186.209L252.026,186.17L251.926,186.15L251.728,187.13ZM265.486,197.294L266.254,196.653L266.242,196.641L265.486,197.294ZM274.28,220.636L273.28,220.695L273.282,220.697L274.28,220.636ZM261.338,254.542L260.606,253.861L260.478,253.998L260.408,254.174L261.338,254.542ZM250.7,265.433L251.078,266.359L251.08,266.358L250.7,265.433ZM236.516,265.433L236.878,264.501L236.82,264.478L236.758,264.463L236.516,265.433ZM46.212,135.714L235.734,184.903L236.236,182.967L46.714,133.778L46.212,135.714ZM235.786,184.915L251.53,188.11L251.926,186.15L236.184,182.955L235.786,184.915ZM251.338,188.051C258.852,191.227 263.41,196.42 264.728,197.948L266.242,196.641C264.866,195.047 260.064,189.567 252.118,186.209L251.338,188.051ZM264.718,197.935C272.27,206.973 273.072,217.118 273.28,220.695L275.278,220.578C275.062,216.895 274.232,206.202 266.254,196.653L264.718,197.935ZM273.282,220.697C274.388,238.839 262.816,251.49 260.606,253.861L262.068,255.224C264.326,252.803 276.44,239.607 275.278,220.576L273.282,220.697ZM260.408,254.174C259.968,255.28 257.334,261.622 250.32,264.508L251.08,266.358C258.886,263.146 261.784,256.128 262.266,254.911L260.408,254.174ZM250.322,264.507C243.852,267.15 238.14,264.989 236.878,264.501L236.156,266.366C237.518,266.893 243.862,269.307 251.078,266.359L250.322,264.507ZM236.758,264.463C167.864,247.256 98.97,230.049 30.04,212.841L29.555,214.782C98.485,231.989 167.38,249.196 236.274,266.403L236.758,264.463Z" fill="#FFFFFF"/>
<path d="M152.006,27.211L385.354,74.185L385.452,73.695L152.105,26.72L152.006,27.211Z" fill="#FFFFFF"/>
<path d="M133.851,47.902L363.901,95.168L364.001,94.678L133.952,47.413L133.851,47.902Z" fill="#FFFFFF"/>
<path d="M118.955,71.534L351.665,123.119L351.773,122.631L119.063,71.046L118.955,71.534Z" fill="#FFFFFF"/>
<path d="M106.083,91.573L328.616,142.286L328.726,141.799L106.194,91.085L106.083,91.573Z" fill="#FFFFFF"/>
<path d="M90.253,120.262L97.274,111.839L308.495,159.867Z" fill="#000000" stroke="#FFFFFF" stroke-width="0.25" stroke-miterlimit="10"/>
<path d="M78.274,123.117L268.646,174.702L268.777,174.219L78.405,122.634L78.274,123.117Z" fill="#FFFFFF"/>
<path d="M223.912,18.459L118.815,148.529L119.204,148.843L224.3,18.773L223.912,18.459Z" fill="#FFFFFF"/>
<path d="M268.511,27.942L166.818,165.89L167.22,166.187L268.913,28.239L268.511,27.942Z" fill="#FFFFFF"/>
<path d="M314.291,37.52L209.301,170.93L209.694,171.239L314.684,37.829L314.291,37.52Z" fill="#FFFFFF"/>
<path d="M363.763,37.51L235.796,183.771L236.172,184.1L364.139,37.839L363.763,37.51Z" fill="#FFFFFF"/>
</svg>
