<svg width="240" height="176" viewBox="0 0 240 176" fill="none" xmlns="http://www.w3.org/2000/svg" xmlns:xlink="http://www.w3.org/1999/xlink">
<path d="M3,4L3,1L0,1L0,4L3,4ZM236,4L239,4L239,1L236,1L236,4ZM236,173L236,176L239,176L239,173L236,173ZM3,173L0,173L0,176L3,176L3,173ZM3,7L236,7L236,1L3,1L3,7ZM233,4L233,173L239,173L239,4L233,4ZM236,170L3,170L3,176L236,176L236,170ZM6,173L6,4L0,4L0,173L6,173Z" fill="#F5F5F5"/>
<path d="M70.859,151.21L69.859,151.175L69.823,152.21L70.859,152.21L70.859,151.21ZM143.108,151.21L143.108,152.21L144.185,152.21L144.106,151.136L143.108,151.21ZM136.868,104.498L135.886,104.689L135.886,104.689L136.868,104.498ZM116.923,44.038L116.02,44.468L116.021,44.469L116.923,44.038ZM101.997,24.79L102.034,25.789L102.035,25.789L101.997,24.79ZM87.039,49.537L87.981,49.872L87.981,49.872L87.039,49.537ZM74.59,104.498L75.582,104.622L75.582,104.621L74.59,104.498ZM70.859,152.21L143.108,152.21L143.108,150.21L70.859,150.21L70.859,152.21ZM144.106,151.136C142.682,131.905 140.133,115.999 137.849,104.306L135.886,104.689C138.159,116.321 140.695,132.147 142.111,151.284L144.106,151.136ZM137.849,104.306C136.258,96.151 131.153,71.435 117.825,43.606L116.021,44.469C129.242,72.075 134.307,96.6 135.886,104.689L137.849,104.306ZM117.825,43.607C113.972,35.534 111.047,30.596 108.619,27.682C106.173,24.748 104.096,23.711 101.96,23.791L102.035,25.789C103.3,25.742 104.839,26.271 107.082,28.962C109.342,31.674 112.18,36.422 116.02,44.468L117.825,43.607ZM101.961,23.791C101.406,23.811 100.613,23.921 99.615,24.498C98.641,25.061 97.517,26.042 96.226,27.725C93.654,31.078 90.302,37.366 86.097,49.202L87.981,49.872C92.164,38.099 95.432,32.045 97.813,28.943C98.998,27.397 99.935,26.623 100.616,26.229C101.273,25.849 101.731,25.801 102.034,25.789L101.961,23.791ZM86.097,49.202C78.533,70.474 75.484,89.233 73.598,104.374L75.582,104.621C77.46,89.548 80.487,70.95 87.981,49.872L86.097,49.202ZM73.598,104.373C72.109,116.248 70.521,132.176 69.859,151.175L71.858,151.245C72.517,132.318 74.099,116.451 75.582,104.622L73.598,104.373Z" fill="#FFFFFF"/>
</svg>
