<svg width="240" height="176" viewBox="0 0 240 176" fill="none" xmlns="http://www.w3.org/2000/svg" xmlns:xlink="http://www.w3.org/1999/xlink">
<path d="M3,4L3,1L0,1L0,4L3,4ZM236,4L239,4L239,1L236,1L236,4ZM236,173L236,176L239,176L239,173L236,173ZM3,173L0,173L0,176L3,176L3,173ZM3,7L236,7L236,1L3,1L3,7ZM233,4L233,173L239,173L239,4L233,4ZM236,170L3,170L3,176L236,176L236,170ZM6,173L6,4L0,4L0,173L6,173Z" fill="#F5F5F5"/>
<path d="M118.781,21.914L74.258,152.693L76.151,153.338L120.674,22.559L118.781,21.914Z" fill="#FFFFFF"/>
<line x1="75.205" y1="152.015" x2="119.728" y2="152.015" stroke="#FFFFFF" stroke-width="1" stroke-miterlimit="10"/>
<path d="M117.325,22.559L161.849,153.298L163.742,152.654L119.219,21.914L117.325,22.559Z" fill="#FFFFFF"/>
<line x1="118.272" y1="152.015" x2="162.795" y2="152.015" stroke="#FFFFFF" stroke-width="1" stroke-miterlimit="10"/>
<path d="M3,4L3,1L0,1L0,4L3,4ZM236,4L239,4L239,1L236,1L236,4ZM236,173L236,176L239,176L239,173L236,173ZM3,173L0,173L0,176L3,176L3,173ZM3,7L236,7L236,1L3,1L3,7ZM233,4L233,173L239,173L239,4L233,4ZM236,170L3,170L3,176L236,176L236,170ZM6,173L6,4L0,4L0,173L6,173Z" fill="#F5F5F5"/>
<path d="M119.254,22.075L74.731,152.854L75.678,153.176L120.201,22.397L119.254,22.075Z" fill="#FFFFFF"/>
<line x1="75.205" y1="152.515" x2="119.728" y2="152.515" stroke="#FFFFFF" stroke-width="0.5" stroke-miterlimit="10"/>
<path d="M117.799,22.398L162.322,153.137L163.268,152.815L118.745,22.075L117.799,22.398Z" fill="#FFFFFF"/>
<line x1="118.272" y1="152.515" x2="162.795" y2="152.515" stroke="#FFFFFF" stroke-width="0.5" stroke-miterlimit="10"/>
</svg>
