<svg width="1038" height="352" viewBox="0 0 1038 352" fill="none" xmlns="http://www.w3.org/2000/svg" xmlns:xlink="http://www.w3.org/1999/xlink">
<path d="M977,4L978.884,1.665L978.06,1L977,1L977,4ZM1034,50L1037,50L1037,48.566L1035.884,47.665L1034,50ZM1034,348L1034,351L1037,351L1037,348L1034,348ZM4,348L1,348L1,351L4,351L4,348ZM4,4L4,1L1,1L1,4L4,4ZM69,7L977,7L977,1L69,1L69,7ZM975.116,6.335L1032.116,52.335L1035.884,47.665L978.884,1.665L975.116,6.335ZM1031,50L1031,348L1037,348L1037,50L1031,50ZM1034,345L4,345L4,351L1034,351L1034,345ZM7,348L7,4L1,4L1,348L7,348ZM4,7L69,7L69,1L4,1L4,7Z" fill="#F5F5F5"/>
<path d="M28,314L25,314L25,317L28,317L28,314ZM25,220L25,314L31,314L31,220L25,220ZM28,317L163,317L163,311L28,311L28,317Z" fill="#F5F5F5"/>
<path d="M1014,74L1017,74L1017,72.715L1016.07,71.829L1014,74ZM968.93,35.171L1011.93,76.171L1016.07,71.829L973.07,30.829L968.93,35.171ZM1011,74L1011,135L1017,135L1017,74L1011,74Z" fill="#F5F5F5"/>
</svg>
