<svg width="240" height="248" viewBox="0 0 240 248" fill="none" xmlns="http://www.w3.org/2000/svg" xmlns:xlink="http://www.w3.org/1999/xlink">
<path d="M3,76L3,73L0,73L0,76L3,76ZM236,76L239,76L239,73L236,73L236,76ZM236,245L236,248L239,248L239,245L236,245ZM3,245L0,245L0,248L3,248L3,245ZM3,79L236,79L236,73L3,73L3,79ZM233,76L233,245L239,245L239,76L233,76ZM236,242L3,242L3,248L236,248L236,242ZM6,245L6,76L0,76L0,245L6,245Z" fill="#F5F5F5"/>
<path d="M9,54L6,54L6,57L9,57L9,54ZM6,1L6,54L12,54L12,1L6,1ZM9,57L133,57L133,51L9,51L9,57Z" fill="#F5F5F5"/>
<path d="M152.854,221.255L152.854,222.255L153.981,222.255L153.847,221.136L152.854,221.255ZM141.929,168.483L142.887,168.198L142.886,168.196L141.929,168.483ZM137.427,154.501L138.373,154.176L138.372,154.173L137.427,154.501ZM113.98,101.998L114.855,101.515L113.979,99.925L113.104,101.515L113.98,101.998ZM86.031,168.483L86.989,168.769L86.989,168.769L86.031,168.483ZM75.105,221.255L74.112,221.136L73.978,222.255L75.105,222.255L75.105,221.255ZM153.847,221.136C151.959,205.345 148.634,187.489 142.887,168.198L140.97,168.769C146.681,187.938 149.985,205.681 151.861,221.373L153.847,221.136ZM142.886,168.196C141.45,163.412 139.932,158.719 138.373,154.176L136.481,154.825C138.032,159.345 139.543,164.014 140.971,168.771L142.886,168.196ZM138.372,154.173C131.394,134.046 123.063,116.404 114.855,101.515L113.104,102.48C121.265,117.286 129.547,134.825 136.482,154.828L138.372,154.173ZM113.104,101.515C103.05,119.783 92.83,142.12 85.072,168.198L86.989,168.769C94.699,142.851 104.858,120.646 114.856,102.48L113.104,101.515ZM85.072,168.198C79.325,187.489 76,205.345 74.112,221.136L76.098,221.373C77.974,205.681 81.278,187.938 86.989,168.769L85.072,168.198ZM75.105,222.255L152.854,222.255L152.854,220.255L75.105,220.255L75.105,222.255Z" fill="#FFFFFF"/>
</svg>
