<svg width="358" height="298" viewBox="0 0 358 298" fill="none" xmlns="http://www.w3.org/2000/svg" xmlns:xlink="http://www.w3.org/1999/xlink">
<path d="M0.156,119.753L-0.31,118.868C-0.578,119.01 -0.768,119.265 -0.826,119.563C-0.883,119.86 -0.803,120.168 -0.607,120.399L0.156,119.753ZM45.3,173.112L46.064,172.466L46.063,172.466L45.3,173.112ZM121.351,263.086L120.588,263.73C120.895,264.094 121.415,264.19 121.832,263.962L121.351,263.086ZM356,134.552L356.48,135.429C356.756,135.278 356.946,135.005 356.99,134.694C357.034,134.382 356.93,134.068 356.708,133.845L356,134.552ZM223.502,2L224.21,1.293C223.9,0.983 223.424,0.911 223.036,1.115L223.502,2ZM-0.607,120.399L44.536,173.758L46.063,172.466L0.919,119.107L-0.607,120.399ZM44.536,173.758L120.588,263.73L122.115,262.44L46.064,172.466L44.536,173.758ZM121.832,263.962L356.48,135.429L355.52,133.675L120.871,262.208L121.832,263.962ZM356.708,133.845L224.21,1.293L222.796,2.707L355.292,135.259L356.708,133.845ZM223.036,1.115L-0.31,118.868L0.622,120.638L223.97,2.885L223.036,1.115Z" fill="#FFFFFF"/>
<path d="M112.548,129.385L112.298,128.952L110.678,129.885L112.548,129.885L112.548,129.385ZM183.666,96.438L183.498,95.968L183.498,95.968L183.666,96.438ZM275.547,74.591L275.983,74.836L276.467,73.975L275.487,74.095L275.547,74.591ZM217.852,148.841L217.507,148.479L217.507,148.479L217.852,148.841ZM164.591,189.984L164.187,190.278L164.46,190.653L164.854,190.409L164.591,189.984ZM159.721,183.286L160.125,182.992L159.838,182.598L159.437,182.874L159.721,183.286ZM111.954,216.169L111.561,216.478L111.851,216.847L112.238,216.581L111.954,216.169ZM68.809,161.152L68.549,160.724L68.068,161.017L68.415,161.46L68.809,161.152ZM121.695,129.002L121.955,129.429L123.611,128.421L121.674,128.503L121.695,129.002ZM112.579,129.385L112.579,129.886L112.6,129.885L112.579,129.385ZM112.797,129.818C131.882,118.827 155.676,107.008 183.835,96.909L183.498,95.968C155.274,106.09 131.426,117.936 112.298,128.952L112.797,129.818ZM183.835,96.909C219.166,84.262 250.724,78.114 275.607,75.087L275.487,74.095C250.542,77.128 218.911,83.291 183.498,95.968L183.835,96.909ZM275.111,74.346C263.796,94.439 245.623,121.602 217.507,148.479L218.198,149.202C246.402,122.241 264.632,94.993 275.983,74.836L275.111,74.346ZM217.507,148.479C198.524,166.63 179.883,179.941 164.328,189.559L164.854,190.409C180.456,180.763 199.155,167.41 218.198,149.202L217.507,148.479ZM164.996,189.69L160.125,182.992L159.316,183.58L164.187,190.278L164.996,189.69ZM159.437,182.874C151.476,188.36 143.515,193.838 135.554,199.316C127.593,204.793 119.632,210.271 111.671,215.757L112.238,216.581C120.199,211.095 128.16,205.617 136.121,200.139C144.082,194.662 152.043,189.184 160.005,183.698L159.437,182.874ZM112.348,215.86C97.955,197.521 83.563,179.182 69.202,160.843L68.415,161.46C82.776,179.799 97.169,198.139 111.561,216.478L112.348,215.86ZM69.068,161.579C86.707,150.863 104.347,140.146 121.955,129.429L121.435,128.575C103.827,139.292 86.188,150.008 68.549,160.724L69.068,161.579ZM121.674,128.503L112.558,128.886L112.6,129.885L121.716,129.502L121.674,128.503ZM112.579,128.885L112.548,128.885L112.548,129.885L112.579,129.885L112.579,128.885Z" fill="#FFFFFF"/>
<path d="M121.196,138.89L121.072,138.673L119.89,139.347L121.234,139.137L121.196,138.89ZM182.355,109.005L182.45,109.236L182.45,109.236L182.355,109.005ZM258.657,84.861L258.855,85.014L259.276,84.467L258.602,84.617L258.657,84.861ZM202.804,142.334L202.645,142.142L202.645,142.142L202.804,142.334ZM154.851,176.238L154.648,176.384L154.782,176.57L154.979,176.452L154.851,176.238ZM151.822,172.028L152.025,171.882L151.886,171.688L151.686,171.818L151.822,172.028ZM109.332,199.616L109.136,199.772L109.278,199.949L109.468,199.826L109.332,199.616ZM82.046,165.33L81.918,165.115L81.672,165.261L81.85,165.486L82.046,165.33ZM128.532,137.741L128.66,137.956L129.777,137.294L128.494,137.494L128.532,137.741ZM121.319,139.107C138.014,129.575 158.61,119.023 182.45,109.236L182.26,108.774C158.397,118.57 137.782,129.132 121.072,138.673L121.319,139.107ZM182.45,109.236C212.344,96.963 238.399,89.631 258.711,85.105L258.602,84.617C238.266,89.148 212.184,96.488 182.26,108.774L182.45,109.236ZM258.459,84.708C246.791,99.846 228.665,120.627 202.645,142.142L202.964,142.527C229.018,120.984 247.169,100.175 258.855,85.014L258.459,84.708ZM202.645,142.142C185.08,156.676 168.419,167.8 154.722,176.023L154.979,176.452C168.693,168.218 185.375,157.08 202.964,142.527L202.645,142.142ZM155.053,176.092L152.025,171.882L151.619,172.174L154.648,176.384L155.053,176.092ZM151.686,171.818C144.599,176.411 137.52,181.012 130.441,185.612C123.362,190.213 116.283,194.814 109.196,199.406L109.468,199.826C116.555,195.233 123.634,190.632 130.713,186.031C137.792,181.431 144.871,176.83 151.958,172.237L151.686,171.818ZM109.528,199.46C104.985,193.751 100.435,188.034 95.884,182.317C91.334,176.6 86.784,170.883 82.241,165.174L81.85,165.486C86.393,171.195 90.943,176.912 95.493,182.629C100.044,188.346 104.594,194.063 109.136,199.772L109.528,199.46ZM82.173,165.545C89.916,160.952 97.666,156.351 105.417,151.751C113.167,147.15 120.917,142.549 128.66,137.956L128.405,137.526C120.662,142.119 112.912,146.72 105.161,151.321C97.411,155.921 89.661,160.522 81.918,165.115L82.173,165.545ZM128.494,137.494L121.157,138.643L121.234,139.137L128.571,137.988L128.494,137.494Z" fill="#FFFFFF"/>
<path d="M121.352,296L120.852,296L120.852,296.863L121.6,296.434L121.352,296ZM356,161.439L356.25,161.872L356.5,161.728L356.5,161.439L356,161.439ZM120.852,263.085L120.852,296L121.852,296L121.852,263.085L120.852,263.085ZM121.6,296.434L356.25,161.872L355.752,161.005L121.103,295.566L121.6,296.434ZM356.5,161.439L356.5,134.552L355.5,134.552L355.5,161.439L356.5,161.439Z" fill="#FFFFFF"/>
<path d="M0,148.521L-0.5,148.519L-0.501,148.7L-0.386,148.839L0,148.521ZM-0.344,119.75L-0.5,148.519L0.5,148.524L0.656,119.756L-0.344,119.75ZM-0.386,148.839L120.965,296.318L121.738,295.682L0.386,148.204L-0.386,148.839Z" fill="#FFFFFF"/>
</svg>
