<svg width="286" height="254" viewBox="0 0 286 254" fill="none" xmlns="http://www.w3.org/2000/svg" xmlns:xlink="http://www.w3.org/1999/xlink">
<path d="M140.792,241.385L139.976,240.807L138.859,242.385L140.792,242.385L140.792,241.385ZM197.536,150.211L196.657,149.734L196.657,149.735L197.536,150.211ZM210.727,124.853L209.832,124.406L209.831,124.407L210.727,124.853ZM252.877,24.617L253.823,24.942L254.709,22.367L252.367,23.757L252.877,24.617ZM133.942,107.729L133.31,106.954L133.31,106.954L133.942,107.729ZM52.315,182.293L51.6,181.594L50.758,182.455L51.76,183.124L52.315,182.293ZM140.824,241.385L140.824,242.385L144.12,242.385L141.38,240.553L140.824,241.385ZM141.609,241.963C160.139,215.779 179.692,185.287 198.416,150.686L196.657,149.735C177.976,184.256 158.467,214.68 139.976,240.807L141.609,241.963ZM198.415,150.687C203.072,142.101 207.475,133.628 211.622,125.298L209.831,124.407C205.695,132.716 201.303,141.168 196.657,149.734L198.415,150.687ZM211.621,125.299C230.026,88.444 243.647,54.526 253.823,24.942L251.933,24.292C241.782,53.801 228.194,87.637 209.832,124.406L211.621,125.299ZM252.367,23.757C217.062,44.72 176.207,71.987 133.31,106.954L134.574,108.504C177.383,73.608 218.155,46.397 253.389,25.477L252.367,23.757ZM133.31,106.954C101.545,132.851 74.404,158.263 51.6,181.594L53.03,182.992C75.787,159.709 102.873,134.348 134.574,108.504L133.31,106.954ZM51.76,183.124C59.136,188.053 66.512,192.976 73.887,197.898C81.263,202.82 88.639,207.741 96.014,212.67L97.125,211.008C89.749,206.078 82.373,201.156 74.998,196.234C67.622,191.312 60.246,186.39 52.871,181.461L51.76,183.124ZM96.014,212.67C103.39,217.6 110.766,222.522 118.142,227.443C125.518,232.365 132.893,237.287 140.269,242.217L141.38,240.553C134.004,235.625 126.628,230.703 119.252,225.781C111.876,220.858 104.501,215.936 97.125,211.008L96.014,212.67ZM140.824,240.385L140.792,240.385L140.792,242.385L140.824,242.385L140.824,240.385Z" fill="#FFFFFF"/>
<path d="M172.048,48.437L172.304,48.866L172.304,48.866L172.048,48.437ZM95.582,102.572L95.269,102.182L95.269,102.182L95.582,102.572ZM251.509,8.086C218.251,21.858 191.562,36.201 171.791,48.007L172.304,48.866C192.04,37.08 218.686,22.76 251.891,9.01L251.509,8.086ZM171.792,48.007C137.064,68.711 113.211,87.762 95.269,102.182L95.895,102.961C113.829,88.548 137.638,69.533 172.304,48.866L171.792,48.007ZM95.269,102.182C69.796,122.681 49.583,141.555 34.694,156.352L35.399,157.061C50.268,142.284 70.455,123.434 95.896,102.961L95.269,102.182Z" fill="#FFFFFF"/>
<path d="M270.816,102.572L271.287,102.738L271.287,102.738L270.816,102.572ZM242.141,159.556L242.57,159.813L242.57,159.813L242.141,159.556ZM283.062,42.698C281.885,57.312 278.833,78.323 270.344,102.405L271.287,102.738C279.812,78.554 282.877,57.454 284.058,42.778L283.062,42.698ZM270.344,102.405C262.653,124.206 253.788,139.155 241.712,159.299L242.57,159.813C254.645,139.669 263.559,124.644 271.287,102.738L270.344,102.405ZM241.712,159.299C219.698,195.994 200.296,227.647 184.367,253.316L185.217,253.844C201.148,228.17 220.553,196.513 242.57,159.813L241.712,159.299Z" fill="#FFFFFF"/>
<path d="M261.258,71.23L260.77,71.119L260.77,71.119L261.258,71.23ZM245.327,119.667L245.789,119.859L245.789,119.859L245.327,119.667ZM267.13,25.617C266.494,37.731 264.841,53.316 260.77,71.119L261.745,71.342C265.831,53.473 267.491,37.83 268.129,25.669L267.13,25.617ZM260.77,71.119C255.746,93.158 249.164,109.139 244.866,119.475L245.789,119.859C250.093,109.51 256.701,93.465 261.745,71.342L260.77,71.119ZM244.866,119.475C238.153,135.578 228.131,156.292 213.049,179.226L213.884,179.775C229.007,156.78 239.057,136.009 245.789,119.859L244.866,119.475Z" fill="#FFFFFF"/>
<path d="M178.42,19.945L178.667,20.379L178.667,20.379L178.42,19.945ZM133.815,45.587L134.073,46.016L134.073,46.016L133.815,45.587ZM86.024,76.929L85.731,76.524L85.731,76.524L86.024,76.929ZM213.22,-0.434C210.368,1.19 203.032,5.364 195.696,9.538C188.36,13.712 181.024,17.886 178.172,19.51L178.667,20.379C181.519,18.755 188.854,14.581 196.19,10.407C203.526,6.233 210.862,2.059 213.714,0.434L213.22,-0.434ZM178.173,19.51C145.837,37.914 140.509,40.967 133.557,45.159L134.073,46.016C141.012,41.831 146.326,38.787 178.667,20.379L178.173,19.51ZM133.815,45.587C133.557,45.159 133.557,45.159 133.556,45.159C133.556,45.16 133.556,45.16 133.555,45.16C133.555,45.16 133.553,45.161 133.552,45.162C133.548,45.164 133.543,45.167 133.537,45.171C133.524,45.179 133.504,45.191 133.479,45.206C133.427,45.237 133.351,45.284 133.25,45.345C133.048,45.467 132.75,45.648 132.362,45.884C131.588,46.356 130.458,47.047 129.038,47.923C126.196,49.676 122.188,52.171 117.524,55.141C108.198,61.081 96.241,68.922 85.731,76.524L86.317,77.334C96.803,69.749 108.742,61.92 118.062,55.985C122.721,53.018 126.724,50.525 129.563,48.774C130.982,47.899 132.11,47.209 132.883,46.738C133.269,46.503 133.567,46.322 133.768,46.2C133.868,46.139 133.945,46.093 133.996,46.062C134.022,46.047 134.041,46.035 134.054,46.027C134.06,46.023 134.065,46.02 134.068,46.018C134.07,46.018 134.071,46.017 134.072,46.016C134.072,46.016 134.073,46.016 134.073,46.016C134.073,46.016 134.073,46.016 133.815,45.587ZM85.731,76.524C45.72,105.508 15.792,151.144 -0.433,179.25L0.433,179.75C16.643,151.67 46.485,106.189 86.317,77.334L85.731,76.524Z" fill="#FFFFFF"/>
</svg>
