<svg width="544" height="620" viewBox="0 0 544 620" fill="none" xmlns="http://www.w3.org/2000/svg" xmlns:xlink="http://www.w3.org/1999/xlink">
<path d="M110,507L112.29,505.062L111.391,504L110,504L110,507ZM154,559L157,559L157,557.901L156.29,557.062L154,559ZM1,510L110,510L110,504L1,504L1,510ZM107.71,508.938L151.71,560.938L156.29,557.062L112.29,505.062L107.71,508.938ZM151,559L151,620L157,620L157,559L151,559Z" fill="#F5F5F5"/>
<path d="M134,235L134,232L132.47,232L131.571,233.24L134,235ZM328,461L325,461L325,464L328,464L328,461ZM328,4L328,1L325,1L325,4L328,4ZM76,315L76,318L77.53,318L78.429,316.76L76,315ZM134,238L328,238L328,232L134,232L134,238ZM325,235L325,461L331,461L331,235L325,235ZM328,464L544,464L544,458L328,458L328,464ZM328,238L544,238L544,232L328,232L328,238ZM331,235L331,4L325,4L325,235L331,235ZM328,7L544,7L544,1L328,1L328,7ZM131.571,233.24L73.571,313.24L78.429,316.76L136.429,236.76L131.571,233.24ZM76,312L1,312L1,318L76,318L76,312Z" fill="#F5F5F5"/>
</svg>
