<svg width="738" height="160" viewBox="0 0 738 160" fill="none" xmlns="http://www.w3.org/2000/svg" xmlns:xlink="http://www.w3.org/1999/xlink">
<path d="M664,3L665.936,0.709L665.098,0L664,0L664,3ZM735,63L738,63L738,61.607L736.936,60.709L735,63ZM735,156L735,159L738,159L738,156L735,156ZM4,156L1,156L1,159L4,159L4,156ZM4,3L4,0L1,0L1,3L4,3ZM181,6L664,6L664,0L181,0L181,6ZM662.064,5.291L733.064,65.291L736.936,60.709L665.936,0.709L662.064,5.291ZM732,63L732,156L738,156L738,63L732,63ZM735,153L4,153L4,159L735,159L735,153ZM7,156L7,3L1,3L1,156L7,156ZM4,6L181,6L181,0L4,0L4,6Z" fill="#F5F5F5"/>
</svg>
