<svg width="682" height="64" viewBox="0 0 682 64" fill="none" xmlns="http://www.w3.org/2000/svg" xmlns:xlink="http://www.w3.org/1999/xlink">
<path d="M138,3L140.255,1.022L139.359,0L138,0L138,3ZM188,60L185.745,61.978L186.641,63L188,63L188,60ZM0,6C0.028,6 0.056,6 0.084,6C0.112,6 0.14,6 0.168,6C0.196,6 0.224,6 0.252,6C0.279,6 0.307,6 0.335,6C0.362,6 0.39,6 0.418,6C0.445,6 0.473,6 0.5,6C0.528,6 0.555,6 0.582,6C0.61,6 0.637,6 0.664,6C0.691,6 0.719,6 0.746,6C0.773,6 0.8,6 0.827,6C0.854,6 0.881,6 0.908,6C0.935,6 0.962,6 0.989,6C1.016,6 1.043,6 1.069,6C1.096,6 1.123,6 1.149,6C1.176,6 1.203,6 1.229,6C1.256,6 1.282,6 1.309,6C1.336,6 1.362,6 1.388,6C1.415,6 1.441,6 1.468,6C1.494,6 1.52,6 1.546,6C1.573,6 1.599,6 1.625,6C1.651,6 1.677,6 1.704,6C1.73,6 1.756,6 1.782,6C1.808,6 1.834,6 1.86,6C1.886,6 1.912,6 1.938,6C1.963,6 1.989,6 2.015,6C2.041,6 2.067,6 2.093,6C2.118,6 2.144,6 2.17,6C2.195,6 2.221,6 2.247,6C2.272,6 2.298,6 2.324,6C2.349,6 2.375,6 2.4,6C2.426,6 2.451,6 2.477,6C2.502,6 2.528,6 2.553,6C2.579,6 2.604,6 2.629,6C2.655,6 2.68,6 2.705,6C2.731,6 2.756,6 2.781,6C2.807,6 2.832,6 2.857,6C2.882,6 2.908,6 2.933,6C2.958,6 2.983,6 3.008,6C3.034,6 3.059,6 3.084,6C3.109,6 3.134,6 3.159,6C3.184,6 3.209,6 3.234,6C3.259,6 3.284,6 3.309,6C3.334,6 3.36,6 3.385,6C3.409,6 3.434,6 3.459,6C3.484,6 3.509,6 3.534,6C3.559,6 3.584,6 3.609,6C3.634,6 3.659,6 3.684,6C3.709,6 3.734,6 3.759,6C3.783,6 3.808,6 3.833,6C3.858,6 3.883,6 3.908,6C3.933,6 3.957,6 3.982,6C4.007,6 4.032,6 4.057,6C4.082,6 4.106,6 4.131,6C4.156,6 4.181,6 4.206,6C4.231,6 4.255,6 4.28,6C4.305,6 4.33,6 4.355,6C4.379,6 4.404,6 4.429,6C4.454,6 4.479,6 4.504,6C4.528,6 4.553,6 4.578,6C4.603,6 4.628,6 4.653,6C4.677,6 4.702,6 4.727,6C4.752,6 4.777,6 4.802,6C4.826,6 4.851,6 4.876,6C4.901,6 4.926,6 4.951,6C4.976,6 5.001,6 5.025,6C5.05,6 5.075,6 5.1,6C5.125,6 5.15,6 5.175,6C5.2,6 5.225,6 5.25,6C5.275,6 5.3,6 5.325,6C5.35,6 5.375,6 5.4,6C5.425,6 5.45,6 5.475,6C5.5,6 5.525,6 5.55,6C5.575,6 5.6,6 5.625,6C5.651,6 5.676,6 5.701,6C5.726,6 5.751,6 5.776,6C5.802,6 5.827,6 5.852,6C5.877,6 5.902,6 5.928,6C5.953,6 5.978,6 6.004,6C6.029,6 6.054,6 6.08,6C6.105,6 6.13,6 6.156,6C6.181,6 6.207,6 6.232,6C6.258,6 6.283,6 6.309,6C6.334,6 6.36,6 6.385,6C6.411,6 6.436,6 6.462,6C6.488,6 6.513,6 6.539,6C6.565,6 6.591,6 6.616,6C6.642,6 6.668,6 6.694,6C6.719,6 6.745,6 6.771,6C6.797,6 6.823,6 6.849,6C6.875,6 6.901,6 6.927,6C6.953,6 6.979,6 7.005,6C7.031,6 7.057,6 7.084,6C7.11,6 7.136,6 7.162,6C7.188,6 7.215,6 7.241,6C7.267,6 7.294,6 7.32,6C7.347,6 7.373,6 7.4,6C7.426,6 7.453,6 7.479,6C7.506,6 7.532,6 7.559,6C7.586,6 7.612,6 7.639,6C7.666,6 7.693,6 7.72,6C7.746,6 7.773,6 7.8,6C7.827,6 7.854,6 7.881,6C7.908,6 7.935,6 7.962,6C7.99,6 8.017,6 8.044,6C8.071,6 8.098,6 8.126,6C8.153,6 8.18,6 8.208,6C8.235,6 8.263,6 8.29,6C8.318,6 8.346,6 8.373,6C8.401,6 8.429,6 8.456,6C8.484,6 8.512,6 8.54,6C8.568,6 8.596,6 8.624,6C8.652,6 8.68,6 8.708,6C8.736,6 8.764,6 8.792,6C8.82,6 8.849,6 8.877,6C8.905,6 8.934,6 8.962,6C8.991,6 9.019,6 9.048,6C9.076,6 9.105,6 9.134,6C9.163,6 9.191,6 9.22,6C9.249,6 9.278,6 9.307,6C9.336,6 9.365,6 9.394,6C9.423,6 9.452,6 9.482,6C9.511,6 9.54,6 9.57,6C9.599,6 9.628,6 9.658,6C9.687,6 9.717,6 9.747,6C9.776,6 9.806,6 9.836,6C9.866,6 9.896,6 9.926,6C9.956,6 9.986,6 10.016,6C10.046,6 10.076,6 10.106,6C10.137,6 10.167,6 10.197,6C10.228,6 10.258,6 10.289,6C10.319,6 10.35,6 10.381,6C10.411,6 10.442,6 10.473,6C10.504,6 10.535,6 10.566,6C10.597,6 10.628,6 10.659,6C10.69,6 10.722,6 10.753,6C10.785,6 10.816,6 10.847,6C10.879,6 10.911,6 10.942,6C10.974,6 11.006,6 11.038,6C11.07,6 11.102,6 11.134,6C11.166,6 11.198,6 11.23,6C11.262,6 11.295,6 11.327,6C11.359,6 11.392,6 11.424,6C11.457,6 11.49,6 11.522,6C11.555,6 11.588,6 11.621,6C11.654,6 11.687,6 11.72,6C11.753,6 11.787,6 11.82,6C11.853,6 11.887,6 11.92,6C11.954,6 11.987,6 12.021,6C12.055,6 12.088,6 12.122,6C12.156,6 12.19,6 12.224,6C12.258,6 12.293,6 12.327,6C12.361,6 12.396,6 12.43,6C12.465,6 12.499,6 12.534,6C12.569,6 12.603,6 12.638,6C12.673,6 12.708,6 12.743,6C12.778,6 12.814,6 12.849,6C12.884,6 12.92,6 12.955,6C12.991,6 13.026,6 13.062,6C13.098,6 13.134,6 13.17,6C13.206,6 13.242,6 13.278,6C13.314,6 13.35,6 13.387,6C13.423,6 13.46,6 13.496,6C13.533,6 13.57,6 13.606,6C13.643,6 13.68,6 13.717,6C13.754,6 13.792,6 13.829,6C13.866,6 13.904,6 13.941,6C13.979,6 14.016,6 14.054,6C14.092,6 14.13,6 14.168,6C14.206,6 14.244,6 14.282,6C14.32,6 14.359,6 14.397,6C14.435,6 14.474,6 14.513,6C14.551,6 14.59,6 14.629,6C14.668,6 14.707,6 14.746,6C14.786,6 14.825,6 14.864,6C14.904,6 14.943,6 14.983,6C15.023,6 15.063,6 15.103,6C15.143,6 15.183,6 15.223,6C15.263,6 15.303,6 15.344,6C15.384,6 15.425,6 15.465,6C15.506,6 15.547,6 15.588,6C15.629,6 15.67,6 15.711,6C15.753,6 15.794,6 15.835,6C15.877,6 15.919,6 15.96,6C16.002,6 16.044,6 16.086,6C16.128,6 16.17,6 16.213,6C16.255,6 16.297,6 16.34,6C16.382,6 16.425,6 16.468,6C16.511,6 16.554,6 16.597,6C16.64,6 16.683,6 16.727,6C16.77,6 16.814,6 16.857,6C16.901,6 16.945,6 16.989,6C17.033,6 17.077,6 17.121,6C17.165,6 17.21,6 17.254,6C17.299,6 17.343,6 17.388,6C17.433,6 17.478,6 17.523,6C17.568,6 17.614,6 17.659,6C17.704,6 17.75,6 17.796,6C17.841,6 17.887,6 17.933,6C17.979,6 18.025,6 18.072,6C18.118,6 18.164,6 18.211,6C18.258,6 18.304,6 18.351,6C18.398,6 18.445,6 18.493,6C18.54,6 18.587,6 18.635,6C18.682,6 18.73,6 18.778,6C18.826,6 18.874,6 18.922,6C18.97,6 19.018,6 19.067,6C19.115,6 19.164,6 19.212,6C19.261,6 19.31,6 19.359,6C19.408,6 19.458,6 19.507,6C19.556,6 19.606,6 19.656,6C19.705,6 19.755,6 19.805,6C19.856,6 19.906,6 19.956,6C20.007,6 20.057,6 20.108,6C20.159,6 20.209,6 20.26,6C20.311,6 20.363,6 20.414,6C20.465,6 20.517,6 20.569,6C20.62,6 20.672,6 20.724,6C20.776,6 20.829,6 20.881,6C20.933,6 20.986,6 21.039,6C21.092,6 21.144,6 21.198,6C21.251,6 21.304,6 21.357,6C21.411,6 21.464,6 21.518,6C21.572,6 21.626,6 21.68,6C21.734,6 21.788,6 21.843,6C21.897,6 21.952,6 22.007,6C22.062,6 22.117,6 22.172,6C22.227,6 22.282,6 22.338,6C22.394,6 22.449,6 22.505,6C22.561,6 22.617,6 22.673,6C22.73,6 22.786,6 22.843,6C22.899,6 22.956,6 23.013,6C23.07,6 23.127,6 23.185,6C23.242,6 23.3,6 23.357,6C23.415,6 23.473,6 23.531,6C23.589,6 23.648,6 23.706,6C23.765,6 23.823,6 23.882,6C23.941,6 24,6 24.059,6C24.119,6 24.178,6 24.238,6C24.297,6 24.357,6 24.417,6C24.477,6 24.537,6 24.598,6C24.658,6 24.719,6 24.78,6C24.84,6 24.901,6 24.963,6C25.024,6 25.085,6 25.147,6C25.208,6 25.27,6 25.332,6C25.394,6 25.456,6 25.518,6C25.581,6 25.643,6 25.706,6C25.769,6 25.832,6 25.895,6C25.958,6 26.022,6 26.085,6C26.149,6 26.212,6 26.276,6C26.34,6 26.405,6 26.469,6C26.533,6 26.598,6 26.663,6C26.727,6 26.792,6 26.858,6C26.923,6 26.988,6 27.054,6C27.12,6 27.185,6 27.251,6C27.317,6 27.384,6 27.45,6C27.516,6 27.583,6 27.65,6C27.717,6 27.784,6 27.851,6C27.919,6 27.986,6 28.054,6C28.121,6 28.189,6 28.257,6C28.326,6 28.394,6 28.463,6C28.531,6 28.6,6 28.669,6C28.738,6 28.807,6 28.876,6C28.946,6 29.016,6 29.085,6C29.155,6 29.225,6 29.296,6C29.366,6 29.436,6 29.507,6C29.578,6 29.649,6 29.72,6C29.791,6 29.863,6 29.934,6C30.006,6 30.078,6 30.15,6C30.222,6 30.294,6 30.367,6C30.439,6 30.512,6 30.585,6C30.658,6 30.731,6 30.804,6C30.878,6 30.951,6 31.025,6C31.099,6 31.173,6 31.247,6C31.322,6 31.396,6 31.471,6C31.546,6 31.621,6 31.696,6C31.771,6 31.847,6 31.923,6C31.998,6 32.074,6 32.15,6C32.226,6 32.303,6 32.379,6C32.456,6 32.533,6 32.61,6C32.687,6 32.764,6 32.842,6C32.92,6 32.997,6 33.075,6C33.153,6 33.232,6 33.31,6C33.389,6 33.468,6 33.546,6C33.625,6 33.705,6 33.784,6C33.864,6 33.943,6 34.023,6C34.103,6 34.183,6 34.264,6C34.344,6 34.425,6 34.506,6C34.587,6 34.668,6 34.749,6C34.831,6 34.912,6 34.994,6C35.076,6 35.158,6 35.241,6C35.323,6 35.406,6 35.489,6C35.571,6 35.655,6 35.738,6C35.821,6 35.905,6 35.989,6C36.073,6 36.157,6 36.241,6C36.325,6 36.41,6 36.495,6C36.58,6 36.665,6 36.75,6C36.836,6 36.921,6 37.007,6C37.093,6 37.179,6 37.266,6C37.352,6 37.439,6 37.525,6C37.612,6 37.7,6 37.787,6C37.874,6 37.962,6 38.05,6C38.138,6 38.226,6 38.314,6C38.403,6 38.492,6 38.581,6C38.669,6 38.759,6 38.848,6C38.938,6 39.027,6 39.117,6C39.207,6 39.298,6 39.388,6C39.479,6 39.569,6 39.661,6C39.752,6 39.843,6 39.934,6C40.026,6 40.118,6 40.21,6C40.302,6 40.395,6 40.487,6C40.58,6 40.673,6 40.766,6C40.859,6 40.953,6 41.046,6C41.14,6 41.234,6 41.328,6C41.422,6 41.517,6 41.612,6C41.707,6 41.802,6 41.897,6C41.992,6 42.088,6 42.184,6C42.28,6 42.376,6 42.472,6C42.569,6 42.665,6 42.762,6C42.859,6 42.957,6 43.054,6C43.152,6 43.25,6 43.348,6C43.446,6 43.544,6 43.643,6C43.741,6 43.84,6 43.94,6C44.039,6 44.138,6 44.238,6C44.338,6 44.438,6 44.538,6C44.638,6 44.739,6 44.84,6C44.941,6 45.042,6 45.144,6C45.245,6 45.347,6 45.449,6C45.551,6 45.653,6 45.756,6C45.858,6 45.961,6 46.064,6C46.168,6 46.271,6 46.375,6C46.479,6 46.583,6 46.687,6C46.791,6 46.896,6 47.001,6C47.106,6 47.211,6 47.316,6C47.422,6 47.528,6 47.634,6C47.74,6 47.846,6 47.953,6C48.059,6 48.166,6 48.274,6C48.381,6 48.488,6 48.596,6C48.704,6 48.812,6 48.921,6C49.029,6 49.138,6 49.247,6C49.356,6 49.465,6 49.575,6C49.684,6 49.794,6 49.904,6C50.015,6 50.125,6 50.236,6C50.347,6 50.458,6 50.569,6C50.681,6 50.793,6 50.905,6C51.017,6 51.129,6 51.242,6C51.354,6 51.467,6 51.58,6C51.694,6 51.807,6 51.921,6C52.035,6 52.149,6 52.263,6C52.378,6 52.493,6 52.608,6C52.723,6 52.838,6 52.954,6C53.07,6 53.186,6 53.302,6C53.418,6 53.535,6 53.652,6C53.769,6 53.886,6 54.004,6C54.121,6 54.239,6 54.357,6C54.475,6 54.594,6 54.713,6C54.832,6 54.951,6 55.07,6C55.19,6 55.309,6 55.429,6C55.549,6 55.67,6 55.791,6C55.911,6 56.032,6 56.154,6C56.275,6 56.397,6 56.519,6C56.641,6 56.763,6 56.886,6C57.008,6 57.131,6 57.254,6C57.378,6 57.501,6 57.625,6C57.749,6 57.873,6 57.998,6C58.123,6 58.247,6 58.373,6C58.498,6 58.623,6 58.749,6C58.875,6 59.001,6 59.128,6C59.254,6 59.381,6 59.508,6C59.635,6 59.763,6 59.891,6C60.019,6 60.147,6 60.275,6C60.404,6 60.533,6 60.662,6C60.791,6 60.92,6 61.05,6C61.18,6 61.31,6 61.441,6C61.571,6 61.702,6 61.833,6C61.964,6 62.096,6 62.227,6C62.359,6 62.491,6 62.624,6C62.756,6 62.889,6 63.022,6C63.156,6 63.289,6 63.423,6C63.557,6 63.691,6 63.825,6C63.96,6 64.095,6 64.23,6C64.365,6 64.501,6 64.637,6C64.772,6 64.909,6 65.045,6C65.182,6 65.319,6 65.456,6C65.593,6 65.731,6 65.869,6C66.007,6 66.145,6 66.284,6C66.422,6 66.561,6 66.701,6C66.84,6 66.98,6 67.12,6C67.26,6 67.4,6 67.541,6C67.681,6 67.822,6 67.964,6C68.105,6 68.247,6 68.389,6C68.531,6 68.674,6 68.817,6C68.959,6 69.103,6 69.246,6C69.39,6 69.533,6 69.678,6C69.822,6 69.967,6 70.111,6C70.256,6 70.402,6 70.547,6C70.693,6 70.839,6 70.985,6C71.132,6 71.279,6 71.426,6C71.573,6 71.72,6 71.868,6C72.016,6 72.164,6 72.312,6C72.461,6 72.61,6 72.759,6C72.908,6 73.058,6 73.208,6C73.358,6 73.508,6 73.659,6C73.81,6 73.961,6 74.112,6C74.264,6 74.415,6 74.568,6C74.72,6 74.872,6 75.025,6C75.178,6 75.331,6 75.485,6C75.638,6 75.792,6 75.947,6C76.101,6 76.256,6 76.411,6C76.566,6 76.722,6 76.877,6C77.033,6 77.19,6 77.346,6C77.503,6 77.66,6 77.817,6C77.974,6 78.132,6 78.29,6C78.448,6 78.607,6 78.766,6C78.924,6 79.084,6 79.243,6C79.403,6 79.563,6 79.723,6C79.883,6 80.044,6 80.205,6C80.366,6 80.528,6 80.69,6C80.851,6 81.014,6 81.176,6C81.339,6 81.502,6 81.665,6C81.829,6 81.992,6 82.157,6C82.321,6 82.485,6 82.65,6C82.815,6 82.98,6 83.146,6C83.312,6 83.478,6 83.644,6C83.811,6 83.977,6 84.145,6C84.312,6 84.48,6 84.648,6C84.816,6 84.984,6 85.153,6C85.321,6 85.491,6 85.66,6C85.83,6 86,6 86.17,6C86.34,6 86.511,6 86.682,6C86.853,6 87.025,6 87.197,6C87.369,6 87.541,6 87.714,6C87.886,6 88.059,6 88.233,6C88.406,6 88.58,6 88.754,6C88.929,6 89.103,6 89.278,6C89.454,6 89.629,6 89.805,6C89.981,6 90.157,6 90.334,6C90.51,6 90.687,6 90.865,6C91.042,6 91.22,6 91.398,6C91.577,6 91.755,6 91.934,6C92.114,6 92.293,6 92.473,6C92.653,6 92.833,6 93.014,6C93.194,6 93.375,6 93.557,6C93.738,6 93.92,6 94.103,6C94.285,6 94.468,6 94.651,6C94.834,6 95.017,6 95.201,6C95.385,6 95.57,6 95.754,6C95.939,6 96.124,6 96.31,6C96.496,6 96.682,6 96.868,6C97.054,6 97.241,6 97.428,6C97.616,6 97.803,6 97.991,6C98.179,6 98.368,6 98.557,6C98.746,6 98.935,6 99.125,6C99.314,6 99.505,6 99.695,6C99.886,6 100.077,6 100.268,6C100.459,6 100.651,6 100.843,6C101.036,6 101.228,6 101.421,6C101.614,6 101.808,6 102.002,6C102.196,6 102.39,6 102.585,6C102.78,6 102.975,6 103.17,6C103.366,6 103.562,6 103.758,6C103.955,6 104.152,6 104.349,6C104.546,6 104.744,6 104.942,6C105.14,6 105.339,6 105.538,6C105.737,6 105.937,6 106.136,6C106.336,6 106.537,6 106.737,6C106.938,6 107.139,6 107.341,6C107.542,6 107.744,6 107.947,6C108.149,6 108.352,6 108.555,6C108.759,6 108.963,6 109.167,6C109.371,6 109.576,6 109.781,6C109.986,6 110.191,6 110.397,6C110.603,6 110.809,6 111.016,6C111.223,6 111.43,6 111.638,6C111.846,6 112.054,6 112.262,6C112.471,6 112.68,6 112.889,6C113.099,6 113.309,6 113.519,6C113.729,6 113.94,6 114.151,6C114.362,6 114.574,6 114.786,6C114.998,6 115.211,6 115.424,6C115.637,6 115.85,6 116.064,6C116.278,6 116.492,6 116.707,6C116.922,6 117.137,6 117.353,6C117.568,6 117.784,6 118.001,6C118.217,6 118.434,6 118.652,6C118.869,6 119.087,6 119.306,6C119.524,6 119.743,6 119.962,6C120.181,6 120.401,6 120.621,6C120.841,6 121.062,6 121.283,6C121.504,6 121.726,6 121.948,6C122.17,6 122.392,6 122.615,6C122.838,6 123.061,6 123.285,6C123.509,6 123.733,6 123.958,6C124.182,6 124.408,6 124.633,6C124.859,6 125.085,6 125.312,6C125.538,6 125.765,6 125.993,6C126.22,6 126.448,6 126.677,6C126.905,6 127.134,6 127.363,6C127.593,6 127.822,6 128.053,6C128.283,6 128.514,6 128.745,6C128.976,6 129.208,6 129.44,6C129.672,6 129.904,6 130.138,6C130.371,6 130.604,6 130.838,6C131.072,6 131.307,6 131.542,6C131.777,6 132.012,6 132.248,6C132.484,6 132.72,6 132.957,6C133.194,6 133.431,6 133.669,6C133.907,6 134.145,6 134.383,6C134.622,6 134.861,6 135.101,6C135.341,6 135.581,6 135.822,6C136.062,6 136.303,6 136.545,6C136.786,6 137.028,6 137.271,6C137.514,6 137.757,6 138,6L138,0C137.757,0 137.514,0 137.271,0C137.028,0 136.786,0 136.545,0C136.303,0 136.062,0 135.822,0C135.581,0 135.341,0 135.101,0C134.861,0 134.622,0 134.383,0C134.145,0 133.907,0 133.669,0C133.431,0 133.194,0 132.957,0C132.72,0 132.484,0 132.248,0C132.012,0 131.777,0 131.542,0C131.307,0 131.072,0 130.838,0C130.604,0 130.371,0 130.138,0C129.904,0 129.672,0 129.44,0C129.208,0 128.976,0 128.745,0C128.514,0 128.283,0 128.053,0C127.822,0 127.593,0 127.363,0C127.134,0 126.905,0 126.677,0C126.448,0 126.22,0 125.993,0C125.765,0 125.538,0 125.312,0C125.085,0 124.859,0 124.633,0C124.408,0 124.182,0 123.958,0C123.733,0 123.509,0 123.285,0C123.061,0 122.838,0 122.615,0C122.392,0 122.17,0 121.948,0C121.726,0 121.504,0 121.283,0C121.062,0 120.841,0 120.621,0C120.401,0 120.181,0 119.962,0C119.743,0 119.524,0 119.306,0C119.087,0 118.869,0 118.652,0C118.434,0 118.217,0 118.001,0C117.784,0 117.568,0 117.353,0C117.137,0 116.922,0 116.707,0C116.492,0 116.278,0 116.064,0C115.85,0 115.637,0 115.424,0C115.211,0 114.998,0 114.786,0C114.574,0 114.362,0 114.151,0C113.94,0 113.729,0 113.519,0C113.309,0 113.099,0 112.889,0C112.68,0 112.471,0 112.262,0C112.054,0 111.846,0 111.638,0C111.43,0 111.223,0 111.016,0C110.809,0 110.603,0 110.397,0C110.191,0 109.986,0 109.781,0C109.576,0 109.371,0 109.167,0C108.963,0 108.759,0 108.555,0C108.352,0 108.149,0 107.947,0C107.744,0 107.542,0 107.341,0C107.139,0 106.938,0 106.737,0C106.537,0 106.336,0 106.136,0C105.937,0 105.737,0 105.538,0C105.339,0 105.14,0 104.942,0C104.744,0 104.546,0 104.349,0C104.152,0 103.955,0 103.758,0C103.562,0 103.366,0 103.17,0C102.975,0 102.78,0 102.585,0C102.39,0 102.196,0 102.002,0C101.808,0 101.614,0 101.421,0C101.228,0 101.036,0 100.843,0C100.651,0 100.459,0 100.268,0C100.077,0 99.886,0 99.695,0C99.505,0 99.314,0 99.125,0C98.935,0 98.746,0 98.557,0C98.368,0 98.179,0 97.991,0C97.803,0 97.616,0 97.428,0C97.241,0 97.054,0 96.868,0C96.682,0 96.496,0 96.31,0C96.124,0 95.939,0 95.754,0C95.57,0 95.385,0 95.201,0C95.017,0 94.834,0 94.651,0C94.468,0 94.285,0 94.103,0C93.92,0 93.738,0 93.557,0C93.375,0 93.194,0 93.014,0C92.833,0 92.653,0 92.473,0C92.293,0 92.114,0 91.934,0C91.755,0 91.577,0 91.398,0C91.22,0 91.042,0 90.865,0C90.687,0 90.51,0 90.334,0C90.157,0 89.981,0 89.805,0C89.629,0 89.454,0 89.278,0C89.103,0 88.929,0 88.754,0C88.58,0 88.406,0 88.233,0C88.059,0 87.886,0 87.714,0C87.541,0 87.369,0 87.197,0C87.025,0 86.853,0 86.682,0C86.511,0 86.34,0 86.17,0C86,0 85.83,0 85.66,0C85.491,0 85.321,0 85.153,0C84.984,0 84.816,0 84.648,0C84.48,0 84.312,0 84.145,0C83.977,0 83.811,0 83.644,0C83.478,0 83.312,0 83.146,0C82.98,0 82.815,0 82.65,0C82.485,0 82.321,0 82.157,0C81.992,0 81.829,0 81.665,0C81.502,0 81.339,0 81.176,0C81.014,0 80.851,0 80.69,0C80.528,0 80.366,0 80.205,0C80.044,0 79.883,0 79.723,0C79.563,0 79.403,0 79.243,0C79.084,0 78.924,0 78.766,0C78.607,0 78.448,0 78.29,0C78.132,0 77.974,0 77.817,0C77.66,0 77.503,0 77.346,0C77.19,0 77.033,0 76.877,0C76.722,0 76.566,0 76.411,0C76.256,0 76.101,0 75.947,0C75.792,0 75.638,0 75.485,0C75.331,0 75.178,0 75.025,0C74.872,0 74.72,0 74.568,0C74.415,0 74.264,0 74.112,0C73.961,0 73.81,0 73.659,0C73.508,0 73.358,0 73.208,0C73.058,0 72.908,0 72.759,0C72.61,0 72.461,0 72.312,0C72.164,0 72.016,0 71.868,0C71.72,0 71.573,0 71.426,0C71.279,0 71.132,0 70.985,0C70.839,0 70.693,0 70.547,0C70.402,0 70.256,0 70.111,0C69.967,0 69.822,0 69.678,0C69.533,0 69.39,0 69.246,0C69.103,0 68.959,0 68.817,0C68.674,0 68.531,0 68.389,0C68.247,0 68.105,0 67.964,0C67.822,0 67.681,0 67.541,0C67.4,0 67.26,0 67.12,0C66.98,0 66.84,0 66.701,0C66.561,0 66.422,0 66.284,0C66.145,0 66.007,0 65.869,0C65.731,0 65.593,0 65.456,0C65.319,0 65.182,0 65.045,0C64.909,0 64.772,0 64.637,0C64.501,0 64.365,0 64.23,0C64.095,0 63.96,0 63.825,0C63.691,0 63.557,0 63.423,0C63.289,0 63.156,0 63.022,0C62.889,0 62.756,0 62.624,0C62.491,0 62.359,0 62.227,0C62.096,0 61.964,0 61.833,0C61.702,0 61.571,0 61.441,0C61.31,0 61.18,0 61.05,0C60.92,0 60.791,0 60.662,0C60.533,0 60.404,0 60.275,0C60.147,0 60.019,0 59.891,0C59.763,0 59.635,0 59.508,0C59.381,0 59.254,0 59.128,0C59.001,0 58.875,0 58.749,0C58.623,0 58.498,0 58.373,0C58.247,0 58.123,0 57.998,0C57.873,0 57.749,0 57.625,0C57.501,0 57.378,0 57.254,0C57.131,0 57.008,0 56.886,0C56.763,0 56.641,0 56.519,0C56.397,0 56.275,0 56.154,0C56.032,0 55.911,0 55.791,0C55.67,0 55.549,0 55.429,0C55.309,0 55.19,0 55.07,0C54.951,0 54.832,0 54.713,0C54.594,0 54.475,0 54.357,0C54.239,0 54.121,0 54.004,0C53.886,0 53.769,0 53.652,0C53.535,0 53.418,0 53.302,0C53.186,0 53.07,0 52.954,0C52.838,0 52.723,0 52.608,0C52.493,0 52.378,0 52.263,0C52.149,0 52.035,0 51.921,0C51.807,0 51.694,0 51.58,0C51.467,0 51.354,0 51.242,0C51.129,0 51.017,0 50.905,0C50.793,0 50.681,0 50.569,0C50.458,0 50.347,0 50.236,0C50.125,0 50.015,0 49.904,0C49.794,0 49.684,0 49.575,0C49.465,0 49.356,0 49.247,0C49.138,0 49.029,0 48.921,0C48.812,0 48.704,0 48.596,0C48.488,0 48.381,0 48.274,0C48.166,0 48.059,0 47.953,0C47.846,0 47.74,0 47.634,0C47.528,0 47.422,0 47.316,0C47.211,0 47.106,0 47.001,0C46.896,0 46.791,0 46.687,0C46.583,0 46.479,0 46.375,0C46.271,0 46.168,0 46.064,0C45.961,0 45.858,0 45.756,0C45.653,0 45.551,0 45.449,0C45.347,0 45.245,0 45.144,0C45.042,0 44.941,0 44.84,0C44.739,0 44.638,0 44.538,0C44.438,0 44.338,0 44.238,0C44.138,0 44.039,0 43.94,0C43.84,0 43.741,0 43.643,0C43.544,0 43.446,0 43.348,0C43.25,0 43.152,0 43.054,0C42.957,0 42.859,0 42.762,0C42.665,0 42.569,0 42.472,0C42.376,0 42.28,0 42.184,0C42.088,0 41.992,0 41.897,0C41.802,0 41.707,0 41.612,0C41.517,0 41.422,0 41.328,0C41.234,0 41.14,0 41.046,0C40.953,0 40.859,0 40.766,0C40.673,0 40.58,0 40.487,0C40.395,0 40.302,0 40.21,0C40.118,0 40.026,0 39.934,0C39.843,0 39.752,0 39.661,0C39.569,0 39.479,0 39.388,0C39.298,0 39.207,0 39.117,0C39.027,0 38.938,0 38.848,0C38.759,0 38.669,0 38.581,0C38.492,0 38.403,0 38.314,0C38.226,0 38.138,0 38.05,0C37.962,0 37.874,0 37.787,0C37.7,0 37.612,0 37.525,0C37.439,0 37.352,0 37.266,0C37.179,0 37.093,0 37.007,0C36.921,0 36.836,0 36.75,0C36.665,0 36.58,0 36.495,0C36.41,0 36.325,0 36.241,0C36.157,0 36.073,0 35.989,0C35.905,0 35.821,0 35.738,0C35.655,0 35.571,0 35.489,0C35.406,0 35.323,0 35.241,0C35.158,0 35.076,0 34.994,0C34.912,0 34.831,0 34.749,0C34.668,0 34.587,0 34.506,0C34.425,0 34.344,0 34.264,0C34.183,0 34.103,0 34.023,0C33.943,0 33.864,0 33.784,0C33.705,0 33.625,0 33.546,0C33.468,0 33.389,0 33.31,0C33.232,0 33.153,0 33.075,0C32.997,0 32.92,0 32.842,0C32.764,0 32.687,0 32.61,0C32.533,0 32.456,0 32.379,0C32.303,0 32.226,0 32.15,0C32.074,0 31.998,0 31.923,0C31.847,0 31.771,0 31.696,0C31.621,0 31.546,0 31.471,0C31.396,0 31.322,0 31.247,0C31.173,0 31.099,0 31.025,0C30.951,0 30.878,0 30.804,0C30.731,0 30.658,0 30.585,0C30.512,0 30.439,0 30.367,0C30.294,0 30.222,0 30.15,0C30.078,0 30.006,0 29.934,0C29.863,0 29.791,0 29.72,0C29.649,0 29.578,0 29.507,0C29.436,0 29.366,0 29.296,0C29.225,0 29.155,0 29.085,0C29.016,0 28.946,0 28.876,0C28.807,0 28.738,0 28.669,0C28.6,0 28.531,0 28.463,0C28.394,0 28.326,0 28.257,0C28.189,0 28.121,0 28.054,0C27.986,0 27.919,0 27.851,0C27.784,0 27.717,0 27.65,0C27.583,0 27.516,0 27.45,0C27.384,0 27.317,0 27.251,0C27.185,0 27.12,0 27.054,0C26.988,0 26.923,0 26.858,0C26.792,0 26.727,0 26.663,0C26.598,0 26.533,0 26.469,0C26.405,0 26.34,0 26.276,0C26.212,0 26.149,0 26.085,0C26.022,0 25.958,0 25.895,0C25.832,0 25.769,0 25.706,0C25.643,0 25.581,0 25.518,0C25.456,0 25.394,0 25.332,0C25.27,0 25.208,0 25.147,0C25.085,0 25.024,0 24.963,0C24.901,0 24.84,0 24.78,0C24.719,0 24.658,0 24.598,0C24.537,0 24.477,0 24.417,0C24.357,0 24.297,0 24.238,0C24.178,0 24.119,0 24.059,0C24,0 23.941,0 23.882,0C23.823,0 23.765,0 23.706,0C23.648,0 23.589,0 23.531,0C23.473,0 23.415,0 23.357,0C23.3,0 23.242,0 23.185,0C23.127,0 23.07,0 23.013,0C22.956,0 22.899,0 22.843,0C22.786,0 22.73,0 22.673,0C22.617,0 22.561,0 22.505,0C22.449,0 22.394,0 22.338,0C22.282,0 22.227,0 22.172,0C22.117,0 22.062,0 22.007,0C21.952,0 21.897,0 21.843,0C21.788,0 21.734,0 21.68,0C21.626,0 21.572,0 21.518,0C21.464,0 21.411,0 21.357,0C21.304,0 21.251,0 21.198,0C21.144,0 21.092,0 21.039,0C20.986,0 20.933,0 20.881,0C20.829,0 20.776,0 20.724,0C20.672,0 20.62,0 20.569,0C20.517,0 20.465,0 20.414,0C20.363,0 20.311,0 20.26,0C20.209,0 20.159,0 20.108,0C20.057,0 20.007,0 19.956,0C19.906,0 19.856,0 19.805,0C19.755,0 19.705,0 19.656,0C19.606,0 19.556,0 19.507,0C19.458,0 19.408,0 19.359,0C19.31,0 19.261,0 19.212,0C19.164,0 19.115,0 19.067,0C19.018,0 18.97,0 18.922,0C18.874,0 18.826,0 18.778,0C18.73,0 18.682,0 18.635,0C18.587,0 18.54,0 18.493,0C18.445,0 18.398,0 18.351,0C18.304,0 18.258,0 18.211,0C18.164,0 18.118,0 18.072,0C18.025,0 17.979,0 17.933,0C17.887,0 17.841,0 17.796,0C17.75,0 17.704,0 17.659,0C17.614,0 17.568,0 17.523,0C17.478,0 17.433,0 17.388,0C17.343,0 17.299,0 17.254,0C17.21,0 17.165,0 17.121,0C17.077,0 17.033,0 16.989,0C16.945,0 16.901,0 16.857,0C16.814,0 16.77,0 16.727,0C16.683,0 16.64,0 16.597,0C16.554,0 16.511,0 16.468,0C16.425,0 16.382,0 16.34,0C16.297,0 16.255,0 16.213,0C16.17,0 16.128,0 16.086,0C16.044,0 16.002,0 15.96,0C15.919,0 15.877,0 15.835,0C15.794,0 15.753,0 15.711,0C15.67,0 15.629,0 15.588,0C15.547,0 15.506,0 15.465,0C15.425,0 15.384,0 15.344,0C15.303,0 15.263,0 15.223,0C15.183,0 15.143,0 15.103,0C15.063,0 15.023,0 14.983,0C14.943,0 14.904,0 14.864,0C14.825,0 14.786,0 14.746,0C14.707,0 14.668,0 14.629,0C14.59,0 14.551,0 14.513,0C14.474,0 14.435,0 14.397,0C14.359,0 14.32,0 14.282,0C14.244,0 14.206,0 14.168,0C14.13,0 14.092,0 14.054,0C14.016,0 13.979,0 13.941,0C13.904,0 13.866,0 13.829,0C13.792,0 13.754,0 13.717,0C13.68,0 13.643,0 13.606,0C13.57,0 13.533,0 13.496,0C13.46,0 13.423,0 13.387,0C13.35,0 13.314,0 13.278,0C13.242,0 13.206,0 13.17,0C13.134,0 13.098,0 13.062,0C13.026,0 12.991,0 12.955,0C12.92,0 12.884,0 12.849,0C12.814,0 12.778,0 12.743,0C12.708,0 12.673,0 12.638,0C12.603,0 12.569,0 12.534,0C12.499,0 12.465,0 12.43,0C12.396,0 12.361,0 12.327,0C12.293,0 12.258,0 12.224,0C12.19,0 12.156,0 12.122,0C12.088,0 12.055,0 12.021,0C11.987,0 11.954,0 11.92,0C11.887,0 11.853,0 11.82,0C11.787,0 11.753,0 11.72,0C11.687,0 11.654,0 11.621,0C11.588,0 11.555,0 11.522,0C11.49,0 11.457,0 11.424,0C11.392,0 11.359,0 11.327,0C11.295,0 11.262,0 11.23,0C11.198,0 11.166,0 11.134,0C11.102,0 11.07,0 11.038,0C11.006,0 10.974,0 10.942,0C10.911,0 10.879,0 10.847,0C10.816,0 10.785,0 10.753,0C10.722,0 10.69,0 10.659,0C10.628,0 10.597,0 10.566,0C10.535,0 10.504,0 10.473,0C10.442,0 10.411,0 10.381,0C10.35,0 10.319,0 10.289,0C10.258,0 10.228,0 10.197,0C10.167,0 10.137,0 10.106,0C10.076,0 10.046,0 10.016,0C9.986,0 9.956,0 9.926,0C9.896,0 9.866,0 9.836,0C9.806,0 9.776,0 9.747,0C9.717,0 9.687,0 9.658,0C9.628,0 9.599,0 9.57,0C9.54,0 9.511,0 9.482,0C9.452,0 9.423,0 9.394,0C9.365,0 9.336,0 9.307,0C9.278,0 9.249,0 9.22,0C9.191,0 9.163,0 9.134,0C9.105,0 9.076,0 9.048,0C9.019,0 8.991,0 8.962,0C8.934,0 8.905,0 8.877,0C8.849,0 8.82,0 8.792,0C8.764,0 8.736,0 8.708,0C8.68,0 8.652,0 8.624,0C8.596,0 8.568,0 8.54,0C8.512,0 8.484,0 8.456,0C8.429,0 8.401,0 8.373,0C8.346,0 8.318,0 8.29,0C8.263,0 8.235,0 8.208,0C8.18,0 8.153,0 8.126,0C8.098,0 8.071,0 8.044,0C8.017,0 7.99,0 7.962,0C7.935,0 7.908,0 7.881,0C7.854,0 7.827,0 7.8,0C7.773,0 7.746,0 7.72,0C7.693,0 7.666,0 7.639,0C7.612,0 7.586,0 7.559,0C7.532,0 7.506,0 7.479,0C7.453,0 7.426,0 7.4,0C7.373,0 7.347,0 7.32,0C7.294,0 7.267,0 7.241,0C7.215,0 7.188,0 7.162,0C7.136,0 7.11,0 7.084,0C7.057,0 7.031,0 7.005,0C6.979,0 6.953,0 6.927,0C6.901,0 6.875,0 6.849,0C6.823,0 6.797,0 6.771,0C6.745,0 6.719,0 6.694,0C6.668,0 6.642,0 6.616,0C6.591,0 6.565,0 6.539,0C6.513,0 6.488,0 6.462,0C6.436,0 6.411,0 6.385,0C6.36,0 6.334,0 6.309,0C6.283,0 6.258,0 6.232,0C6.207,0 6.181,0 6.156,0C6.13,0 6.105,0 6.08,0C6.054,0 6.029,0 6.004,0C5.978,0 5.953,0 5.928,0C5.902,0 5.877,0 5.852,0C5.827,0 5.802,0 5.776,0C5.751,0 5.726,0 5.701,0C5.676,0 5.651,0 5.625,0C5.6,0 5.575,0 5.55,0C5.525,0 5.5,0 5.475,0C5.45,0 5.425,0 5.4,0C5.375,0 5.35,0 5.325,0C5.3,0 5.275,0 5.25,0C5.225,0 5.2,0 5.175,0C5.15,0 5.125,0 5.1,0C5.075,0 5.05,0 5.025,0C5.001,0 4.976,0 4.951,0C4.926,0 4.901,0 4.876,0C4.851,0 4.826,0 4.802,0C4.777,0 4.752,0 4.727,0C4.702,0 4.677,0 4.653,0C4.628,0 4.603,0 4.578,0C4.553,0 4.528,0 4.504,0C4.479,0 4.454,0 4.429,0C4.404,0 4.379,0 4.355,0C4.33,0 4.305,0 4.28,0C4.255,0 4.231,0 4.206,0C4.181,0 4.156,0 4.131,0C4.106,0 4.082,0 4.057,0C4.032,0 4.007,0 3.982,0C3.957,0 3.933,0 3.908,0C3.883,0 3.858,0 3.833,0C3.808,0 3.783,0 3.759,0C3.734,0 3.709,0 3.684,0C3.659,0 3.634,0 3.609,0C3.584,0 3.559,0 3.534,0C3.509,0 3.484,0 3.459,0C3.434,0 3.409,0 3.385,0C3.36,0 3.334,0 3.309,0C3.284,0 3.259,0 3.234,0C3.209,0 3.184,0 3.159,0C3.134,0 3.109,0 3.084,0C3.059,0 3.034,0 3.008,0C2.983,0 2.958,0 2.933,0C2.908,0 2.882,0 2.857,0C2.832,0 2.807,0 2.781,0C2.756,0 2.731,0 2.705,0C2.68,0 2.655,0 2.629,0C2.604,0 2.579,0 2.553,0C2.528,0 2.502,0 2.477,0C2.451,0 2.426,0 2.4,0C2.375,0 2.349,0 2.324,0C2.298,0 2.272,0 2.247,0C2.221,0 2.195,0 2.17,0C2.144,0 2.118,0 2.093,0C2.067,0 2.041,0 2.015,0C1.989,0 1.963,0 1.938,0C1.912,0 1.886,0 1.86,0C1.834,0 1.808,0 1.782,0C1.756,0 1.73,0 1.704,0C1.677,0 1.651,0 1.625,0C1.599,0 1.573,0 1.546,0C1.52,0 1.494,0 1.468,0C1.441,0 1.415,0 1.388,0C1.362,0 1.336,0 1.309,0C1.282,0 1.256,0 1.229,0C1.203,0 1.176,0 1.149,0C1.123,0 1.096,0 1.069,0C1.043,0 1.016,0 0.989,0C0.962,0 0.935,0 0.908,0C0.881,0 0.854,0 0.827,0C0.8,0 0.773,0 0.746,0C0.719,0 0.691,0 0.664,0C0.637,0 0.61,0 0.582,0C0.555,0 0.528,0 0.5,0C0.473,0 0.445,0 0.418,0C0.39,0 0.362,0 0.335,0C0.307,0 0.279,0 0.252,0C0.224,0 0.196,0 0.168,0C0.14,0 0.112,0 0.084,0C0.056,0 0.028,0 0,0L0,6ZM135.745,4.978L185.745,61.978L190.255,58.022L140.255,1.022L135.745,4.978ZM188,63L681,63L681,57L188,57L188,63Z" fill="#F5F5F5"/>
</svg>
